<?xml version="1.0" encoding="UTF-8"?>
<!DOCTYPE svg PUBLIC "-//W3C//DTD SVG 1.1//EN" "http://www.w3.org/Graphics/SVG/1.1/DTD/svg11.dtd">
<!-- Creator: CorelDRAW -->
<svg xmlns="http://www.w3.org/2000/svg" xml:space="preserve" width="210mm" height="297mm" version="1.1" style="shape-rendering:geometricPrecision; text-rendering:geometricPrecision; image-rendering:optimizeQuality; fill-rule:evenodd; clip-rule:evenodd"
viewBox="0 0 21000 29700"
 xmlns:xlink="http://www.w3.org/1999/xlink"
 xmlns:xodm="http://www.corel.com/coreldraw/odm/2003">
 <defs>
  <style type="text/css">
   <![CDATA[
    .fil0 {fill:none}
   ]]>
  </style>
   <clipPath id="id0">
    <path d="M10636.16 10106.92l-2333.06 6330.19 -2128.38 -784.42 31.03 -84.18c96.49,-132.41 151.43,-310.67 208.41,-465.3 53.84,-146.07 102.76,-258.15 118.86,-416.81 1.31,-12.83 27.66,-84.3 53.95,-154.81 7.55,69.87 24.77,118.15 22.71,129.74 -9.99,56.25 -24.24,58.45 -25.49,157.58l-3.64 196.92c-256.64,422.5 199.06,924.54 644.38,709.96 106.78,-51.45 160.81,-115.59 223.71,-209.95 87.64,-87.64 133.98,-218.05 135.55,-342.12l2.87 -206.13c20.74,-66.71 19.83,-134.33 25.34,-152.06 36.28,-116.68 33.42,-325.37 -16.81,-444.68 -21.43,-50.9 -15.51,-78.14 -71.44,-160.96 -213.71,-316.42 -641.86,-320.76 -842.25,-44.3 11.44,-143.2 -6.86,-288.39 -54.65,-424.84l-0.65 -19.49c76.22,-244.2 58.58,-509.64 -48.55,-741.83 -30.36,-65.79 -60.15,-123.65 -94.63,-177.67l1371.05 -3720.07 2781.69 1025.23z"/>
   </clipPath>
   <clipPath id="id1">
    <path d="M5138.01 8401.77l2506.25 -1559.9 1589.16 2553.25c-190.99,181.6 -326.39,418.58 -386.22,675.61 -63.7,273.75 -66.46,382.53 -34.29,666.85l-46.89 261.36c-14.87,99.91 -40.93,328.13 -58.85,409.47 -20.15,91.41 -30.21,164.37 -34.55,257.95l-4.13 132.06 -43.59 147.51c-52.23,224.38 -44.55,427.11 8.15,649.56l19.87 117.42c29.19,257.95 125.75,486.55 268.17,673.66 -15.84,29.33 -30.43,58.9 -43.46,88.08 -28.87,64.63 -3.98,28.58 -47.62,74.27l-212.49 221.3c-94.41,89.46 -180.64,199.66 -244.87,312.78l-18.19 31.5 -719.53 447.85c-4.61,-70.79 -17.49,-139.6 -39.34,-191.5 -21.43,-50.9 -15.51,-78.14 -71.44,-160.96 -237.76,-352.03 -741,-317.86 -900.67,59.59 -83.39,197.14 -9.66,368.57 -13.8,391.85 -9.99,56.25 -24.24,58.45 -25.49,157.58l-3.64 196.92c-49.76,81.91 -72.63,166.81 -74.1,248.9l-187.55 116.73 -2686.98 -4317.06c349.03,-31.9 655.86,-194 892.42,-454.45 92.14,-83.07 188.76,-209.35 250.19,-317.57 36.45,-64.23 65.43,-100.62 103.65,-176.19 69.41,-137.29 96.7,-244.36 130.9,-391.33 31.01,-133.21 33.04,-235.94 38.06,-369.96l-8.7 -209.97c-5.29,-48.82 3.38,-75.9 8.73,-130.04l42.86 -129.4c40.88,-144.12 58.26,-302.27 49.4,-451.82 -0.69,-11.19 -1.12,-21.77 -1.42,-31.9z"/>
   </clipPath>
   <clipPath id="id2">
    <path d="M5461.15 17118.22l-630.21 200.04c-66.33,-124.44 -154.7,-237.25 -261.94,-330.84l-138.03 -111.89c-59.26,-76.97 -185.31,-205.12 -261.33,-265.26l-91.46 -81.71c-68.24,-68.92 -105.63,-108.89 -186.94,-167.11 -51.98,-37.22 -64.32,-42.83 -111.87,-91.31 -36.05,-36.76 -62.7,-81.87 -96.25,-121.11l-135.51 -164.8 -54.86 -98.03 -139.3 -195.42c-52.95,-68.48 -48.77,-74.45 -92.12,-143.73l-39.88 -73.22c-47.88,-96.92 -79.46,-135.27 -140.79,-218.77l-86.45 -159.61 -139.3 -195.42c-44.47,-57.5 -37.68,-65.37 -74.3,-130.96l-143.26 -270.3 -57.88 -162.28 -82.02 -156.13c-13.33,-21.28 -136.7,-423.06 -151.25,-468.91l-618.93 -1949.98c84.17,-75.55 155.78,-169.85 212.4,-267.43l184.37 -278.83c46.62,-58.92 87.85,-122.77 122.42,-189.48 25.16,-48.56 12.96,-27.52 54.09,-66.33l78.83 -81.97c35.66,-40.86 24.59,-26.66 67.87,-63.67l247.48 -242.72c6.02,-6.89 10.89,-12.43 15.03,-17.03l1086.38 -344.08 199.32 -22c78.3,-8.29 133.75,-4.2 220.14,-17.77 35.03,-5.5 29.51,-8.87 64.37,-4.08 114.66,15.79 231.75,15.53 346.16,-2.44 48.58,-7.63 39.93,-9.37 88.4,-1.25 77.92,13.04 155.29,23.01 234.52,22.55 75.24,-0.44 300.17,57.55 471.81,56.54l237.36 34.01c120.66,20.2 228.18,29.04 350.61,16.07 33.35,-3.53 23.33,-6.14 55.06,3.22 72.58,21.4 147.8,35.89 223.15,42.9 36.86,3.43 49.08,12.62 86.82,23.74l75.1 31.83c141.16,71.03 175.93,70.2 320.7,116.33 77.78,24.77 131.07,53.18 206,80.3 92.7,33.57 197.59,73.38 294.2,96.88l110.29 32.29 74.47 35.68 53.87 58.34 45.49 91.18c30.68,54.95 25.75,34.73 46.08,89.06 34.29,91.7 80.4,179.73 136.39,260.05l189.94 338.39c38.74,78.41 74.06,121.34 112.45,190.1l134.73 218.43 326.33 584.2c50.54,90.53 28.17,37.74 62,144.33 14.58,45.92 97.84,294.64 99.28,320.37l14.79 220.02c5.76,54.42 7.49,31.57 -0.16,85.21l-41.72 544.81 -42.53 101.35 -163.62 134.46c-52.24,48.81 -27.1,32.57 -82.28,67.09 -126.04,78.86 -203.54,164.51 -308.04,263.09l-115.04 125.55c-28.57,36.1 -38.15,50.94 -73.33,82.7l-140.5 96.91 -180.21 161.59c-62.51,43.58 -121.18,93.71 -173.98,148.65 -71.45,74.34 -132.54,121.84 -200.73,208.01 -64.4,81.39 -32.55,44.02 -113.26,106.43l-170.67 158.78c-102.18,87.4 -213.07,203.36 -286.42,316.92l-44.49 75.48 -92.62 103.33 -59.42 82.51 -60.88 48.24c-86.9,74.31 -187.73,176.73 -254.65,270.21 -12.9,18.01 -60.17,46.49 -79.25,61.24 -104.76,81.02 -196.03,180.62 -267.88,291.85 -20.41,31.6 -32.09,38.24 -59.54,65.17 -67.64,66.36 -129.33,137.69 -180.85,217.44l-22.75 32zm-1035.51 -4906.7c2.27,19.03 9.47,49.19 16.04,59.32 21.34,32.88 79.89,22.77 75.91,-30.06 -1.28,-16.95 -5.86,-28.68 -3.42,-43.32 2.44,-14.67 -4.16,-42.62 -19.06,-55.6 3.61,-21.52 -7.7,-44.31 -26.05,-55.8 -2.34,-9.11 -7.12,-18.33 -15.53,-27.79 -12.06,-13.56 -56.06,-25.51 -73.62,-19.64 -9.84,3.28 -19.52,-10.47 -62.32,20.46 -16.66,12.03 -23.84,45.68 -21.26,58.71 -0.31,7.03 1.02,13.73 3.59,19.75 -1.08,6.38 -1.54,12.65 -0.87,18.68l-4.4 11.98c-5.53,20.7 1.59,25.17 5.76,43.55 3.59,15.79 18.48,41.61 40.44,46.37 29.89,6.48 54.23,-19.93 50.06,-46.95 10.81,4.97 23.54,5.67 34.73,0.34z"/>
   </clipPath>
   <clipPath id="id3">
    <path d="M18071.82 14240.88l1836.97 3055.69 -7284.8 4379.35 -931.65 -1549.74c54.04,-5.77 122.64,-21.79 199.06,-68.22 53.64,-32.59 111.46,-24.41 215.4,-102.15 20.09,-15.03 71.12,-21.32 98.42,-31.31 92.71,-33.93 1.63,-13.97 129.61,-20.45 115.19,-5.83 151.09,-44.48 225.98,-52.08l124.39 -22.49c111.23,-1.4 215.06,-40.14 309.42,-97.47 101.02,-61.37 217.73,-188.88 260.53,-305.83 138.68,-378.91 -194.7,-726.03 -565.99,-667.48 176.25,-169.39 302.92,-386.72 362.58,-626.17l155.2 -623.11c30.63,-122.93 43.08,-245.82 38.21,-366.91l4826.67 -2901.63z"/>
   </clipPath>
   <clipPath id="id4">
    <path d="M10841.76 21221.41l4737.76 454.51 621.28 -6476.25c-27.11,-0.44 -54.36,-1.78 -81.74,-4.06 -27.49,-2.29 -109.07,-13.72 -130.56,-10.34 -180.3,28.41 -354.93,1.05 -538,-16.51l-415.6 -39.87 -239.28 53.81c-69.7,10.97 -151.93,15.48 -222.4,12.31 -21.15,-0.95 -22.58,0.06 -49.1,11.33l-153.07 52.22c-33.93,8.86 -18.3,5.35 -54.52,27.38 -57.85,35.18 -129.1,69.63 -192.61,93.06 -61.49,22.67 -26.45,2.34 -72.88,37.06l-134.55 86.29c-44.31,24.13 -24.95,12.89 -62.98,44.27l-242.94 200.41 -72.76 54.86 -19.75 60.47c-77.43,213.8 -202.61,369.73 -377.68,510.69 -109.27,87.98 -179.33,142.25 -313.27,199.19l-230.51 82.07 -261.73 53.96c-167.58,76.11 -362.31,100.63 -545.05,85.43 -194.4,-16.18 -345.22,-41.06 -511.1,-127.16l-436.96 4554.87z"/>
   </clipPath>
 </defs>
 <g id="Camada_x0020_1">
  <metadata id="CorelCorpID_0Corel-Layer"/>
  <rect class="fil0" x="1999.99" y="7412.49" width="17000.02" height="14875.02"/>
  <g style="clip-path:url(#id0)">
   <image transform="matrix(0.0858147 0.0316276 -3.16276E-002 0.0858147 7854.47 9081.7)" x="0" y="0" width="32414.95" height="73766.11" xlink:href="logo_Images/logo_ImgID1.png"/>
  </g>
  <g style="clip-path:url(#id1)">
   <image transform="matrix(0.0994448 -6.18954E-002 0.0618954 0.0994448 2857.95 9820.9)" x="0" y="0" width="48130.19" height="55916.06" xlink:href="logo_Images/logo_ImgID2.png"/>
  </g>
  <g style="clip-path:url(#id2)">
   <image transform="matrix(-9.8927E-002 0.0313998 -3.13998E-002 -9.8927E-002 9736.9 15761.1)" x="0" y="0" width="64283.21" height="68300.93" xlink:href="logo_Images/logo_ImgID3.png"/>
  </g>
  <g style="clip-path:url(#id3)">
   <image transform="matrix(0.0580757 0.0966056 -9.66056E-002 0.0580757 18071.8 14240.9)" x="0" y="0" width="31630.42" height="75407.69" xlink:href="logo_Images/logo_ImgID4.png"/>
  </g>
  <g style="clip-path:url(#id4)">
   <image transform="matrix(-9.53827E-002 -9.15023E-003 -9.15023E-003 0.0953827 16218.5 15015.2)" x="0" y="0" width="49671.11" height="69830.97" xlink:href="logo_Images/logo_ImgID5.png"/>
  </g>
 </g>
</svg>
